<svg width="20" height="20" viewBox="0 0 20 20" fill="none" xmlns="http://www.w3.org/2000/svg">
<g id="&#195;&#173;cone - busca">
<path id="Vector (Stroke)" fill-rule="evenodd" clip-rule="evenodd" d="M11.7316 0.952379C7.69108 0.952379 4.41559 4.22787 4.41559 8.26839C4.41559 10.2542 5.20674 12.0551 6.49104 13.3733C6.51743 13.3908 6.54248 13.4111 6.56571 13.4343C6.58894 13.4576 6.60928 13.4826 6.6267 13.509C7.9449 14.7933 9.74586 15.5844 11.7316 15.5844C15.7721 15.5844 19.0476 12.3089 19.0476 8.26839C19.0476 4.22787 15.7721 0.952379 11.7316 0.952379ZM6.23136 14.4421C7.69275 15.745 9.61971 16.5368 11.7316 16.5368C16.2981 16.5368 20 12.8349 20 8.26839C20 3.70188 16.2981 0 11.7316 0C7.1651 0 3.46321 3.70188 3.46321 8.26839C3.46321 10.3803 4.255 12.3073 5.55792 13.7687L0.139474 19.1871C-0.0464906 19.3731 -0.0464914 19.6746 0.139472 19.8605C0.325435 20.0465 0.626943 20.0465 0.812907 19.8605L6.23136 14.4421Z" fill="#4F4F4F"/>
</g>
</svg>
